<svg xmlns="http://www.w3.org/2000/svg" version="1.1" xmlns:xlink="http://www.w3.org/1999/xlink" width="1500" height="274" viewBox="0 0 1500 274"><svg xml:space="preserve" width="1500" height="274" data-version="2" data-id="lg_MMklGQTwVksK7CPArR" viewBox="0 0 565 274" x="0" y="0"><rect width="100%" height="100%" fill="transparent"></rect><circle r="99.82" fill="#ff851b" transform="translate(139.77 137)scale(1.3398)"></circle><path d="M183.01 121.88q.5 0 1.75-1.75t3.25-5.87q.87-1.88 3-6.38 2.12-4.5 5-10.62l6-12.82q3.12-6.68 5.93-12.81 2.82-6.12 4.94-10.75 2.13-4.62 3-6.5 1.75-4 1.88-5.75.12-1.75-.5-1.75h21.87q-.5 0-.37 1.75.12 1.75 1.75 5.75.87 1.88 2.87 6.44 2 4.56 4.81 10.69 2.82 6.12 5.82 12.68 3 6.57 5.87 12.69 2.88 6.13 5 10.75 2.13 4.63 3.13 6.63 2 4.12 3.68 5.87 1.69 1.75 2.57 1.75h-23.13q1.25-.25 2.06-2 .82-1.75-.31-5.62-.25-1-.87-2.88-.63-1.87-1.13-2.75-.75-1.75-1.5-2.5t-1.94-1q-1.18-.25-3.31-.25h-32q-2.37 0-3.75.19-1.37.19-2.06.94t-1.31 2.5l-1 3q-.5 1.5-.75 2.75-1.13 4.12-.63 5.87.5 1.75 1.38 1.75Zm32.37-27h25.13q3.62 0 4-.62.37-.63-.38-2.75-1.62-4-3.75-8.69-2.12-4.69-4.31-9.38-2.19-4.68-4.25-9-2.06-4.31-3.56-7.56h-.25q-2.63 5.5-5.38 11.44-2.75 5.94-5.19 11.12-2.43 5.19-3.93 8.44l-1.5 3.25q-.88 2-.57 2.88.32.87 3.94.87"></path><rect width="91.25" height="75" x="-45.63" y="-37.5" fill="none" rx="0" ry="0" transform="translate(229.13 84.88)"></rect><path d="M275.01 121.88q.87 0 1.68-1.75.82-1.75.82-5.75V72.13q0-4-.82-5.69-.81-1.68-1.68-1.81 5.5 0 9.56-.81 4.06-.81 5.69-1.69v7.63l-.25 1.62.25.25q1.87-2.37 4.81-4.5 2.94-2.12 7.31-3.56 4.38-1.44 10.25-1.44 11.63 0 17.81 6.63 6.19 6.62 6.19 20.75v24.87q0 4 .81 5.75.82 1.75 1.69 1.75h-17.75q.88 0 1.69-1.75.81-1.75.81-5.75v-24.5q0-7.37-1.87-11.5-1.88-4.12-5.19-5.81-3.31-1.69-7.69-1.69-4.62 0-9 2-4.37 2-7.12 6.38-2.75 4.37-2.75 11.75v23.37q0 4 .81 5.75t1.69 1.75Z"></path><rect width="64.12" height="59.75" x="-32.06" y="-29.88" fill="none" rx="0" ry="0" transform="translate(307.57 92.5)"></rect><path d="M368.26 123.13q-13.63 0-19.13-4.94-5.5-4.93-5.5-13.31 0-5.87 2.94-10.06t8.87-6.44q5.94-2.25 15.07-2.25 6.5 0 11.31.94 4.81.94 7.87 2.19 3.07 1.25 4.32 2.12 0-7.37-1.82-11.87-1.81-4.5-5.81-6.57-4-2.06-10.87-2.06-7.38 0-13.19 1.69t-9.31 3.62q-3.5 1.94-4.38 2.82v-2.5l-1.25-9.38q1.13-.5 4.88-1.69 3.75-1.18 9.87-2.25 6.13-1.06 14.38-1.06 10.5 0 17.18 2.94 6.69 2.94 9.88 9 3.19 6.06 3.19 15.31v25q0 3.5.81 5.06.81 1.57 1.69 2.44h-15.25v-3.75l.25-2.37-.25-.13q-2 1.88-4.75 3.25-2.75 1.38-6 2.31-3.25.94-7.07 1.44-3.81.5-7.93.5m4.12-8.87q6.75 0 11.63-1.38 4.87-1.37 7.43-3.69 2.57-2.31 2.57-5.31 0-3.75-4.94-6.37-4.94-2.63-15.31-2.63-9.63 0-13.57 2.5-3.93 2.5-3.93 7.5 0 4.88 3.81 7.13t12.31 2.25"></path><rect width="65.63" height="61" x="-32.81" y="-30.5" fill="none" rx="0" ry="0" transform="translate(376.94 93.13)"></rect><path d="M414.51 121.88q.87 0 1.68-1.75.82-1.75.82-5.75V72.13q0-4-.82-5.69-.81-1.68-1.68-1.81 5.5 0 9.56-.81 4.06-.81 5.69-1.69v7.63l-.25 1.62.25.25q1.87-2.37 4.81-4.5 2.94-2.12 7.31-3.56 4.38-1.44 10.25-1.44 11.63 0 17.81 6.63 6.19 6.62 6.19 20.75v24.87q0 4 .81 5.75.82 1.75 1.69 1.75h-17.75q.88 0 1.69-1.75.81-1.75.81-5.75v-24.5q0-7.37-1.87-11.5-1.88-4.12-5.19-5.81-3.31-1.69-7.69-1.69-4.62 0-9 2-4.37 2-7.12 6.38-2.75 4.37-2.75 11.75v23.37q0 4 .81 5.75t1.69 1.75Z"></path><rect width="64.12" height="59.75" x="-32.06" y="-29.88" fill="none" rx="0" ry="0" transform="translate(447.07 92.5)"></rect><path d="M512.63 123.13q-11.87 0-18.44-4-6.56-4-9.12-10.87-2.56-6.88-2.56-15.5 0-8.75 2.56-15.63 2.56-6.87 9.12-10.94 6.57-4.06 18.44-4.06 5 0 8.88.94 3.87.94 6.75 2.5 2.87 1.56 4.75 3.69l.25-.13-.25-2.37V43.13q0-4-.82-5.69-.81-1.68-1.68-1.81h15.25v78.75q0 4 .81 5.75t1.69 1.75h-15.25v-3.87l.37-2.38-.37-.12q-1.88 2.12-4.75 3.87-2.88 1.75-6.75 2.75-3.88 1-8.88 1m.88-8.87q6.37 0 10.25-1.94 3.87-1.94 5.87-5.13 2-3.18 2.69-6.93.69-3.75.69-7.5 0-3.25-.75-7.07-.75-3.81-2.75-7.18-2-3.38-5.88-5.5-3.87-2.13-10.12-2.13-10.5 0-14.44 6-3.94 6-3.94 16 0 6.63 1.56 11.44 1.57 4.81 5.57 7.37 4 2.57 11.25 2.57"></path><rect width="65.75" height="87.5" x="-32.88" y="-43.75" fill="none" rx="0" ry="0" transform="translate(515.88 79.88)"></rect><path d="M189.63 232.06q.88 0 1.69-1.75.81-1.75.81-5.75v-60q0-4-.87-5.69-.88-1.69-1.75-1.81h41q11.62 0 18.12 2.81 6.5 2.81 9.19 8 2.69 5.19 2.69 12.56 0 4.63-2 9.13-2 4.5-6.44 7.75t-11.94 4.25v.37q8.38 2.25 14.44 8.25 6.06 6 10.44 13.13 2.87 4.62 5.25 6.62 2.37 2 3.62 2.13h-26.25q1.5-.13 2.44-1.69t-.69-5.19q-2.62-6-7.44-10.69-4.81-4.68-12.06-7.37-7.25-2.69-17.25-2.69h-1.37q-3.88 0-4.5.63-.63.62-.63 3.12v16.38q0 4 .88 5.75.87 1.75 1.75 1.75Zm21.63-37.63h15.37q10 0 15-3.56t5-10.44q0-4.62-1.94-7.56-1.93-2.94-6.06-4.31-4.12-1.38-10.75-1.38h-16.62q-3.88 0-4.5.38-.63.37-.63 2.87v20.63q0 2.5.63 2.93.62.44 4.5.44"></path><rect width="84.37" height="75" x="-42.19" y="-37.5" fill="none" rx="0" ry="0" transform="translate(232.2 195.06)"></rect><path d="M301.13 233.31q-9.87 0-16.25-2.32-6.37-2.31-10-6.43-3.62-4.13-5.06-9.63-1.44-5.5-1.44-12 0-14.12 8.06-22.37 8.07-8.25 23.94-8.25 9.25 0 14.94 2.5 5.69 2.5 8.62 6.62 2.94 4.13 4 8.94 1.07 4.81 1.07 9.44v5.87q0-.37-3.44-.81-3.44-.44-11.56-.44h-32.88q0 9.25 5.5 14.63 5.5 5.37 16.38 5.37 9.37 0 15.43-2.31 6.07-2.31 8.07-4.56v2.5l1.25 8.25q-2.75 1.62-9.69 3.31-6.94 1.69-16.94 1.69m-15-37.13h30.38q0-3.25-1.38-6.75-1.37-3.5-4.87-5.94-3.5-2.43-9.88-2.43-5.37 0-9.37 1.81-4 1.81-6.19 4.69-2.19 2.87-2.19 6.12 0 1.25.75 1.88.75.62 2.75.62"></path><rect width="60.63" height="61" x="-30.32" y="-30.5" fill="none" rx="0" ry="0" transform="translate(299.2 203.31)"></rect><path d="M366.63 233.31q-11.75 0-19.69-1.25-7.93-1.25-10.81-2.5v-2.5l-2.62-10.75q3.25 2.62 11.43 5.43 8.19 2.82 19.94 2.82 7.75 0 11.63-1.07 3.87-1.06 5.12-2.87t1.25-4.06q0-2.63-1.81-4.19-1.81-1.56-6.75-2.63-4.94-1.06-14.56-2.18-10.5-1.25-16.19-3.63-5.69-2.37-7.81-6.06-2.13-3.69-2.13-8.81 0-4 2.13-7.88 2.12-3.87 7.93-6.37 5.82-2.5 16.57-2.5 11.62 0 19.56 1.25 7.94 1.25 10.81 2.5v2.5l2.5 9.5q-3.12-2.25-11.37-4.63-8.25-2.37-19.88-2.37-9.25 0-12.37 2.06-3.13 2.06-3.13 5.31 0 1.88.75 3.31.75 1.44 3.06 2.57 2.32 1.12 7 2 4.69.87 12.57 1.75 10.62 1.12 16.12 3.5 5.5 2.37 7.56 5.93 2.07 3.57 2.07 8.32 0 5.12-2.82 9.06-2.81 3.94-9.18 6.19-6.38 2.25-16.88 2.25"></path><rect width="62" height="61" x="-31" y="-30.5" fill="none" rx="0" ry="0" transform="translate(365.01 203.31)"></rect><path d="M424.38 233.31q-8.62 0-12.5-3.69-3.87-3.69-3.87-12.06v-35.25h-11.25v-8.75q5.75 0 9-1.44t4.62-5.06q1.38-3.63 1.38-10.13h9v16.63h23.87q-.87 1.25-1.69 3.68-.81 2.44-.81 5.07h-21.37v33.37q0 5.75 2.12 7.25 2.13 1.5 5.38 1.5 3.12 0 5.81-1.31 2.69-1.31 4.75-3.19 2.06-1.87 3.19-3.62v3.87l1.25 7.13q-1.25 1.25-3.88 2.68-2.62 1.44-6.37 2.38t-8.63.94"></path><rect width="47.87" height="76.38" x="-23.93" y="-38.19" fill="none" rx="0" ry="0" transform="translate(421.2 195.62)"></rect><path d="M446.13 232.06q.88 0 1.69-1.75.81-1.75.81-5.75v-42.25q0-4-.81-5.69-.81-1.69-1.69-1.81 5.5 0 9.56-.82 4.07-.81 5.69-1.68v6.25l-.25 2.12.25.25q1.88-2.5 4.56-4.44 2.69-1.93 6.19-3.06 3.5-1.12 8-1.12 5.88 0 10.19 1.68 4.31 1.69 6.19 3.44l-2.5 10.5v3.75q-1.63-2-4.69-4.19-3.06-2.18-6.94-3.68-3.87-1.5-8.25-1.5-5 0-8.87 4-3.88 4-3.88 13.25v25q0 4 .81 5.75.82 1.75 1.69 1.75Z"></path><rect width="50.38" height="59.75" x="-25.19" y="-29.88" fill="none" rx="0" ry="0" transform="translate(471.82 202.69)"></rect><path d="M526.38 233.31q-12.5 0-19.56-4-7.06-4-9.88-10.88-2.81-6.87-2.81-15.5 0-8.75 2.94-15.62 2.94-6.88 9.94-10.94t19.37-4.06q12.38 0 19.38 4.06 7 4.06 9.93 10.94 2.94 6.87 2.94 15.62 0 8.63-2.81 15.5-2.81 6.88-9.81 10.88-7 4-19.63 4m0-8.88q7.75 0 12-2.5t5.88-7.31q1.62-4.81 1.62-11.69 0-6.87-1.69-11.75-1.68-4.87-5.87-7.5-4.19-2.62-11.94-2.62-7.62 0-11.87 2.68-4.25 2.69-5.94 7.63-1.69 4.94-1.69 11.69 0 6.62 1.63 11.43 1.62 4.82 5.87 7.38 4.25 2.56 12 2.56"></path><rect width="64.5" height="61" x="-32.25" y="-30.5" fill="none" rx="0" ry="0" transform="translate(526.88 203.31)"></rect></svg></svg>